:SAMPLES-PER-SECOND 24
:FULLY-SPECIFIED
:DEGREES
615
root  4.55371 39.7812 23.052 7.48914 -50.7632 -0.545776
RightUpLeg  -8.68382 -8.22719 -2.03116
RightLeg  17.7632 -10.2494 -3.7502
RightFoot  -11.7524 -0.0776716 0.622198
RightToes  -2.08645e-008 3.77894e-005 6.81332e-007
Spine  7.39343 3.46913 5.99825
Spine1  2.64203 4.73568 -4.40449
HEad  -32.0012 26.3469 -17.9946
LeftShoulder1  7.02083 -12.8699 -36.8149
LeftArm  -2.9104 43.7248 -30.5094
LeftForeArm  142.996 -78.776 -124.907
LeftHand  -0.676648 0.433726 15.8795
RightShoulder  4.15399 6.95401 33.832
RightArm  8.49788 -25.1143 26.3428
RightForeArm  123.005 80.2307 106.989
RightHand  -1.35702 7.12851 -12.8649
LeftUpLeg  -19.147 15.0944 6.64554
LeftLeg  28.3531 15.1751 9.03689
LeftFoot  -2.99157 0.66497 -8.85695
LeftToes  1.24767e-006 1.47042e-008 1.32732e-009
616
root  4.63738 39.6557 23.0993 7.81213 -47.7077 -0.827332
RightUpLeg  -8.02309 -9.46049 -1.57013
RightLeg  17.113 -12.5243 -4.24155
RightFoot  -12.6339 -0.0786376 0.576308
RightToes  -2.08645e-008 3.77894e-005 6.81332e-007
Spine  7.88171 3.25155 5.57179
Spine1  2.9217 4.43917 -4.01995
HEad  -33.0216 26.0574 -19.5142
LeftShoulder1  7.19474 -13.0461 -37.3891
LeftArm  -2.013 40.4852 -28.8847
LeftForeArm  134.75 -79.6322 -116.957
LeftHand  -0.695311 0.432097 16.3082
RightShoulder  4.10139 6.90762 33.5062
RightArm  8.59455 -21.2643 29.4957
RightForeArm  112.341 80.6583 95.205
RightHand  -1.45808 6.70816 -14.2544
LeftUpLeg  -21.5 19.483 3.81956
LeftLeg  31.6866 19.0464 12.5807
LeftFoot  -3.59012 0.428193 -6.01916
LeftToes  1.24767e-006 1.47042e-008 1.32732e-009
617
root  4.7228 39.4861 23.3015 8.49817 -42.5493 -1.92981
RightUpLeg  -7.15989 -11.9145 -0.558686
RightLeg  17.3548 -15.0914 -5.0482
RightFoot  -13.3637 -0.0628549 1.58876
RightToes  -2.08645e-008 3.77894e-005 6.81332e-007
Spine  7.65561 2.86283 6.47395
Spine1  3.47738 4.0183 -3.758
HEad  -32.9844 25.1791 -20.0428
LeftShoulder1  7.60123 -13.4375 -38.7279
LeftArm  -0.00378277 34.162 -26.9222
LeftForeArm  122.415 -80.4919 -103.886
LeftHand  -0.713753 0.406959 16.6536
RightShoulder  4.17965 6.97606 33.9924
RightArm  8.58416 -18.2344 32.6153
RightForeArm  98.4004 80.5894 80.9067
RightHand  -1.44235 6.40841 -14.4355
LeftUpLeg  -24.068 23.2209 1.19333
LeftLeg  34.1121 18.4549 13.3165
LeftFoot  -3.67196 0.465745 -6.60857
LeftToes  1.24767e-006 1.47042e-008 1.32732e-009
618
root  4.78397 39.2594 23.6378 8.96619 -36.0886 -3.28717
RightUpLeg  -7.038 -15.3771 0.793423
RightLeg  20.4626 -17.1648 -7.14499
RightFoot  -14.1418 -0.00989653 3.5154
RightToes  -2.08645e-008 3.77894e-005 6.81332e-007
Spine  7.23708 2.75093 7.44672
Spine1  3.46266 3.82007 -3.40681
HEad  -31.8654 23.4354 -18.8349
LeftShoulder1  7.96677 -13.7468 -39.98
LeftArm  2.37725 26.4838 -26.4451
LeftForeArm  107.397 -80.7777 -88.4056
LeftHand  -0.734432 0.125515 16.2424
RightShoulder  4.32558 7.09669 34.9052
RightArm  8.62721 -17.0909 34.6716
RightForeArm  86.0683 80.0339 68.903
RightHand  -1.43789 6.62999 -14.1422
LeftUpLeg  -25.9737 25.8889 -1.1514
LeftLeg  35.5513 17.448 13.3057
LeftFoot  -4.96924 0.458934 -7.70364
LeftToes  1.24767e-006 1.47042e-008 1.32732e-009
619
root  4.88047 38.9448 24.065 8.4751 -28.7997 -3.77277
RightUpLeg  -8.7523 -18.7925 1.09368
RightLeg  28.7704 -18.5444 -10.9182
RightFoot  -15.0951 0.174075 8.49273
RightToes  -2.08645e-008 3.77894e-005 6.81332e-007
Spine  7.5429 2.75266 7.24088
Spine1  2.30081 3.64045 -2.71365
HEad  -30.7339 20.7227 -16.5002
LeftShoulder1  8.17487 -13.899 -40.7281
LeftArm  4.96723 19.0712 -27.8855
LeftForeArm  96.2196 -80.5491 -77.4801
LeftHand  -0.759706 -0.134422 15.7938
RightShoulder  4.39667 7.15758 35.3323
RightArm  8.85383 -17.53 35.952
RightForeArm  79.5516 79.5421 62.9928
RightHand  -1.40557 7.00497 -13.4332
LeftUpLeg  -26.1326 24.7648 -2.72333
LeftLeg  35.7542 17.8168 13.6555
LeftFoot  -8.16768 0.246612 -7.09583
LeftToes  1.24767e-006 1.47042e-008 1.32732e-009
620
root  5.03077 38.5162 24.6132 7.06189 -21.0055 -3.24402
RightUpLeg  -12.7492 -23.1608 -0.0214031
RightLeg  42.3254 -17.9166 -17.011
RightFoot  -12.9024 0.0620094 13.2554
RightToes  -2.08645e-008 3.77894e-005 6.81332e-007
Spine  7.80916 2.6102 6.53627
Spine1  1.79319 3.44744 -2.45668
HEad  -30.1348 17.0815 -13.7392
LeftShoulder1  8.46895 -14.1535 -41.6529
LeftArm  7.9664 11.7753 -29.5559
LeftForeArm  94.3608 -80.4724 -76.3776
LeftHand  -0.764457 -0.220777 15.7713
RightShoulder  4.44202 7.20438 35.5707
RightArm  9.01698 -17.6536 36.4442
RightForeArm  75.6001 79.2048 60.1061
RightHand  -1.30112 7.43557 -12.0813
LeftUpLeg  -24.5899 19.0571 -3.13026
LeftLeg  35.8519 17.3436 13.37
LeftFoot  -11.8131 0.0426874 -6.33623
LeftToes  1.24767e-006 1.47042e-008 1.32732e-009
621
root  5.14312 38.0057 25.2153 5.31934 -12.8062 -2.61444
RightUpLeg  -17.4135 -26.9995 -1.76378
RightLeg  56.593 -15.3342 -23.8115
RightFoot  -5.36548 -0.475343 8.7605
RightToes  -2.08645e-008 3.77894e-005 6.81332e-007
Spine  7.01156 2.35319 5.88583
Spine1  3.6409 3.29409 -2.73971
HEad  -30.0987 12.852 -10.7875
LeftShoulder1  8.84188 -14.4695 -42.7984
LeftArm  11.1528 3.82375 -30.5308
LeftForeArm  103.207 -80.6798 -86.0543
LeftHand  -0.756035 -0.150204 15.908
RightShoulder  4.52472 7.26208 36.1055
RightArm  8.63942 -16.9225 35.932
RightForeArm  79.7954 79.6039 63.787
RightHand  -1.19139 8.19845 -10.501
LeftUpLeg  -22.894 12.3999 -3.22109
LeftLeg  37.2939 15.6647 12.7915
LeftFoot  -15.1154 -0.0821548 -5.25998
LeftToes  1.24767e-006 1.47042e-008 1.32732e-009
622
root  5.1327 37.6953 25.7561 3.78223 -4.07147 -2.56989
RightUpLeg  -20.1009 -29.3088 -3.07315
RightLeg  65.3009 -11.2315 -25.4304
RightFoot  1.15383 0.136555 -1.17474
RightToes  -2.08645e-008 3.77894e-005 6.81332e-007
Spine  6.25317 1.92353 4.96961
Spine1  5.67035 2.83389 -2.60052
HEad  -30.122 8.72574 -7.95203
LeftShoulder1  8.95753 -14.5566 -43.1723
LeftArm  13.8937 -2.80104 -31.7609
LeftForeArm  121.929 -80.4083 -104.592
LeftHand  -0.748038 -0.125081 15.811
RightShoulder  4.54342 7.24469 36.3423
RightArm  7.89625 -17.6451 34.6816
RightForeArm  105.08 80.7247 86.98
RightHand  -1.1243 8.56408 -9.69178
LeftUpLeg  -21.4425 6.58342 -3.13785
LeftLeg  38.4523 13.8995 11.9208
LeftFoot  -17.2217 -0.0693218 -3.35751
LeftToes  1.24767e-006 1.47042e-008 1.32732e-009
623
root  4.98931 37.9456 26.3442 2.85657 3.78412 -3.30334
RightUpLeg  -20.8122 -28.2944 -2.83009
RightLeg  67.2588 -8.72547 -22.4253
RightFoot  1.23108 0.511984 -4.53124
RightToes  -2.08645e-008 3.77894e-005 6.81332e-007
Spine  5.95628 1.54122 4.63921
Spine1  5.85792 2.32464 -2.13319
HEad  -29.3309 5.36338 -5.4976
LeftShoulder1  8.69378 -14.3403 -42.3593
LeftArm  15.9368 -4.84098 -33.0988
LeftForeArm  143.457 -78.7487 -125.155
LeftHand  -0.779195 -0.67409 15.023
RightShoulder  4.49958 7.1856 36.1703
RightArm  8.75285 -20.553 32.7987
RightForeArm  139.101 79.1297 121.686
RightHand  -1.11667 8.81393 -9.47071
LeftUpLeg  -19.1728 1.17191 -1.96153
LeftLeg  36.3611 12.486 10.0536
LeftFoot  -16.9087 -0.0378491 -2.8866
LeftToes  1.24767e-006 1.47042e-008 1.32732e-009
624
root  4.72394 38.7898 27.0502 2.92871 9.27084 -4.21753
RightUpLeg  -21.5408 -22.8903 -1.26352
RightLeg  63.2761 -9.10738 -19.445
RightFoot  -0.934533 0.141798 -1.62896
RightToes  -2.08645e-008 3.77894e-005 6.81332e-007
Spine  4.75675 1.51101 4.54422
Spine1  5.47114 2.18408 -1.86988
HEad  -27.9007 3.06379 -3.45609
LeftShoulder1  8.18854 -13.9177 -40.7533
LeftArm  17.2704 -2.11694 -33.3353
LeftForeArm  158.145 -75.9648 -139.569
LeftHand  -0.776372 -1.21872 13.7711
RightShoulder  4.44786 7.15069 35.8304
RightArm  12.1682 -23.1206 31.2704
RightForeArm  152.305 76.1639 137.852
RightHand  -1.21778 8.82712 -10.2597
LeftUpLeg  -15.7025 -2.12951 -0.0115647
LeftLeg  29.858 11.3738 7.26554
LeftFoot  -13.5569 0.0157862 -2.95234
LeftToes  1.24767e-006 1.47042e-008 1.32732e-009
625
root  4.33057 40.0749 27.7672 4.13708 14.5834 -4.57495
RightUpLeg  -22.3001 -17.1999 -0.0257596
RightLeg  53.7846 -11.6445 -16.8248
RightFoot  0.597119 0.135174 -1.20975
RightToes  -2.08645e-008 3.77894e-005 6.81332e-007
Spine  2.71022 1.00437 2.72535
Spine1  4.98056 1.27372 -0.800499
HEad  -26.6429 1.25155 -1.75461
LeftShoulder1  7.5832 -13.3577 -38.8283
LeftArm  17.7928 2.81036 -32.5245
LeftForeArm  164.103 -73.6849 -146.292
LeftHand  -0.711936 -1.27655 12.5407
RightShoulder  4.3444 7.08402 35.1283
RightArm  15.6176 -24.1429 31.5197
RightForeArm  155.091 75.27 140.936
RightHand  -1.27764 9.02805 -10.6266
LeftUpLeg  -12.1666 -1.74773 1.92389
LeftLeg  19.641 5.61104 2.57915
LeftFoot  -6.49877 0.142985 -3.1158
LeftToes  1.24767e-006 1.47042e-008 1.32732e-009
626
root  3.89991 41.3703 28.4648 5.77161 22.5439 -4.34442
RightUpLeg  -21.696 -15.5905 -0.179302
RightLeg  39.9813 -13.3657 -11.9977
RightFoot  4.53352 0.0741296 -0.30891
RightToes  -2.08645e-008 3.77894e-005 6.81332e-007
Spine  1.29905 -0.73535 -0.220931
Spine1  3.59856 -1.05175 1.50542
HEad  -25.6444 -1.54152 -0.287367
LeftShoulder1  7.12663 -12.9256 -37.2975
LeftArm  17.9109 7.44402 -30.6117
LeftForeArm  164.229 -72.5158 -148.594
LeftHand  -0.679123 -1.50374 11.5985
RightShoulder  4.26012 7.02446 34.5679
RightArm  17.0176 -25.1941 32.4002
RightForeArm  155.081 75.4675 140.385
RightHand  -0.842122 9.52229 -6.928
LeftUpLeg  -10.0629 1.65095 3.9084
LeftLeg  9.87558 -6.38135 -1.24651
LeftFoot  1.44426 1.24703 -11.1828
LeftToes  1.24767e-006 1.47042e-008 1.32732e-009
627
root  3.54933 42.093 29.1534 6.63794 31.4144 -3.89783
RightUpLeg  -19.4625 -16.302 -1.82444
RightLeg  25.8822 -10.8441 -5.92307
RightFoot  6.30588 -0.762486 5.21493
RightToes  -2.08645e-008 3.77894e-005 6.81332e-007
Spine  0.408639 -2.3858 -1.86785
Spine1  3.04882 -2.97738 2.79716
HEad  -25.1144 -6.14414 0.778429
LeftShoulder1  7.12333 -13.0196 -37.0378
LeftArm  18.3335 9.29323 -27.14
LeftForeArm  161.651 -71.713 -149.615
LeftHand  -0.684804 -1.62362 11.5045
RightShoulder  4.26323 7.03593 34.5535
RightArm  16.9107 -26.4618 32.3041
RightForeArm  153.444 75.1346 140.97
RightHand  -0.697973 9.23166 -5.91775
LeftUpLeg  -9.2998 3.77139 6.18365
LeftLeg  5.67481 -8.40751 -2.13737
LeftFoot  4.56335 3.16392 -22.7469
LeftToes  1.24767e-006 1.47042e-008 1.32732e-009
628
root  3.2592 42.1528 29.8021 5.85107 38.1738 -4.02002
RightUpLeg  -16.452 -11.5318 -4.8408
RightLeg  15.523 -6.40109 -1.81576
RightFoot  7.01767 -0.945954 6.17974
RightToes  -2.08645e-008 3.77894e-005 6.81332e-007
Spine  -0.463321 -2.63614 -1.94524
Spine1  4.27009 -3.17812 2.64142
HEad  -24.984 -11.7122 1.25027
LeftShoulder1  7.23455 -13.1908 -37.2579
LeftArm  18.3373 7.91363 -24.6151
LeftForeArm  160.04 -71.3091 -150.051
LeftHand  -0.658383 -1.03254 12.0424
RightShoulder  4.23549 7.01692 34.3647
RightArm  16.2473 -26.7095 31.4929
RightForeArm  154.17 74.2619 143.292
RightHand  -0.789098 8.81543 -6.81736
LeftUpLeg  -9.27695 6.20411 8.18659
LeftLeg  10.2689 0.139929 -0.291454
LeftFoot  4.63163 2.91478 -20.7713
LeftToes  1.24767e-006 1.47042e-008 1.32732e-009
629
root  2.94468 41.5644 30.4145 4.12488 43.1039 -4.38611
RightUpLeg  -14.9507 -0.572448 -8.0288
RightLeg  12.5723 -1.91339 -2.36525
RightFoot  7.8243 -0.662082 4.14554
RightToes  -2.08645e-008 3.77894e-005 6.81332e-007
Spine  -0.131133 -2.0825 -2.44581
Spine1  4.54672 -2.68587 3.29446
HEad  -24.2248 -16.8593 1.56291
LeftShoulder1  6.86224 -12.744 -36.1878
LeftArm  16.7136 6.81338 -25.4425
LeftForeArm  161.038 -71.4115 -150.03
LeftHand  -0.612773 -0.793902 11.6253
RightShoulder  4.15641 6.94065 33.9058
RightArm  15.3594 -26.1269 30.2066
RightForeArm  157.395 73.2744 146.021
RightHand  -0.836953 8.28135 -7.45687
LeftUpLeg  -9.97229 4.69882 10.6184
LeftLeg  21.5957 8.20451 3.99144
LeftFoot  6.2619 1.67487 -11.0752
LeftToes  1.24767e-006 1.47042e-008 1.32732e-009
